<svg width="43" height="48" viewBox="0 0 43 48" fill="none" xmlns="http://www.w3.org/2000/svg">
<path d="M21.5 3C23.0889 3 24.6127 3.63214 25.7362 4.75736C26.8597 5.88258 27.4909 7.4087 27.4909 9V15H15.5091V9C15.5091 7.4087 16.1403 5.88258 17.2638 4.75736C18.3873 3.63214 19.9111 3 21.5 3V3ZM30.4864 15V9C30.4864 6.61305 29.5396 4.32387 27.8543 2.63604C26.1691 0.948211 23.8833 0 21.5 0C19.1167 0 16.8309 0.948211 15.1457 2.63604C13.4604 4.32387 12.5136 6.61305 12.5136 9V15H7.60107C6.52533 15.0002 5.48537 15.387 4.67019 16.09C3.85502 16.793 3.31873 17.7656 3.15881 18.831L0.0824702 39.39C-0.0769247 40.4567 -0.00469899 41.5454 0.29422 42.5816C0.59314 43.6179 1.11172 44.5774 1.81458 45.3946C2.51744 46.2119 3.38805 46.8677 4.36701 47.3173C5.34597 47.7669 6.41025 47.9998 7.48724 48H35.5098C36.587 48.0002 37.6516 47.7677 38.6309 47.3183C39.6103 46.8688 40.4813 46.2131 41.1844 45.3958C41.8876 44.5784 42.4065 43.6188 42.7056 42.5823C43.0047 41.5459 43.077 40.457 42.9175 39.39L39.8382 18.831C39.6783 17.7661 39.1425 16.7939 38.328 16.091C37.5134 15.388 36.4742 15.001 35.3989 15H30.4864ZM27.4909 18V22.5C27.4909 22.8978 27.6487 23.2794 27.9296 23.5607C28.2105 23.842 28.5914 24 28.9886 24C29.3859 24 29.7668 23.842 30.0477 23.5607C30.3286 23.2794 30.4864 22.8978 30.4864 22.5V18H35.3959C35.7545 18.0004 36.101 18.1295 36.3726 18.364C36.6441 18.5986 36.8226 18.9229 36.8757 19.278L39.955 39.831C40.0511 40.4712 40.0082 41.1247 39.8291 41.7468C39.65 42.3688 39.3389 42.9449 38.9172 43.4356C38.4955 43.9263 37.9731 44.32 37.3855 44.59C36.798 44.86 36.1592 44.9999 35.5128 45H7.48724C6.84081 44.9999 6.20201 44.86 5.61446 44.59C5.02692 44.32 4.50446 43.9263 4.08276 43.4356C3.66106 42.9449 3.35004 42.3688 3.17094 41.7468C2.99184 41.1247 2.94888 40.4712 3.04498 39.831L6.12431 19.278C6.1773 18.9234 6.35539 18.5995 6.6263 18.365C6.89722 18.1306 7.24303 18.0011 7.60107 18H12.5136V22.5C12.5136 22.8978 12.6714 23.2794 12.9523 23.5607C13.2332 23.842 13.6141 24 14.0114 24C14.4086 24 14.7895 23.842 15.0704 23.5607C15.3513 23.2794 15.5091 22.8978 15.5091 22.5V18H27.4909Z" fill="black"/>
</svg>
